<svg xmlns="http://www.w3.org/2000/svg" width="70" height="30" viewBox="0 0 70 30">
  <g id="Group_46" data-name="Group 46" transform="translate(-33 -768)">
    <g id="Rectangle_263" data-name="Rectangle 263" transform="translate(33 768)" fill="none" stroke="#00904a" stroke-width="2">
      <rect width="70" height="30" rx="5" stroke="none"/>
      <rect x="1" y="1" width="68" height="28" rx="4" fill="none"/>
    </g>
    <g id="Group_41" data-name="Group 41" transform="translate(-1386.235 1577)">
      <path id="Path_163" data-name="Path 163" d="M62.161,81.2c-2.777,1.428-5.209.632-7.486-1.161-1.091-1.291-1.752-3-3.514-3.637a6.26,6.26,0,0,1-1.907-1.1c-1.558-2.874.58-4.091,2.582-4.411,2.023-.323,3.347-1.5,4.939-2.381.9-1.473,2.045-1.683,3.435-.683A24.129,24.129,0,0,1,62.745,70.8c1.149,1.868,2.328,3.379,4.875,3.012,1.142-.165,2.049.214.78,1.507-3.217.754-5.009,3.023-6.24,5.881" transform="translate(1408.867 -868.359)" fill="#00904a"/>
      <path id="Path_165" data-name="Path 165" d="M68.731,85.147c.118-4.488,1.933-6.2,6.24-5.881.391.378.766.774,1.176,1.13,2.45,2.13,2.7,4.866.609,6.852-1.98,1.881-4.6,1.612-6.611-.78a4.089,4.089,0,0,0-1.411-1.321" transform="translate(1402.298 -872.305)" fill="#00904a"/>
      <path id="Path_166" data-name="Path 166" d="M47.616,79.253l2.162.238c1.119,1.343,2.769,2.351,2.759,4.4-1.012.93-.321,2.591-1.588,3.476-2.125,1.484-4.134,1.512-5.982-.328a4.259,4.259,0,0,1,.019-6.023q.1-.1.212-.2a20.441,20.441,0,0,1,2.418-1.568" transform="translate(1410.505 -872.313)" fill="#00904a"/>
      <path id="Path_167" data-name="Path 167" d="M63.739,65.943a7.489,7.489,0,0,0-3.435.683c-.067-.689-1.672-1.195-.247-2.066.263-.161.517-.336.775-.5-1.892-2.2-.357-2.848,1.439-2.485,2.549.51,2.272,2.467,1.467,4.371" transform="translate(1405.338 -866.477)" fill="#00904a"/>
      <path id="Path_168" data-name="Path 168" d="M55.493,84.009l-2.759-4.4a4.682,4.682,0,0,1,3.259,4.5l-.261.006-.238-.107" transform="translate(1407.549 -872.429)" fill="#00904a"/>
      <path id="Path_282" data-name="Path 282" d="M63.077,75.233c-1.311,0-2.076.051-2.832-.011-1.247-.1-3.07,1.718-3.614-.384-.432-1.675,1.774-2.31,2.956-3.04,1.592-.986,1.647,1.142,2.467,1.782.311.243.452.7,1.026,1.654" transform="translate(1406.288 -869.781)" fill="#fff"/>
      <path id="Path_284" data-name="Path 284" d="M74.947,82.234c1.687.415,2.739,1.281,2.589,3.041a2.346,2.346,0,0,1-2.641,2.4A2.432,2.432,0,0,1,72.387,84.8c.074-1.567,1.216-2.256,2.559-2.569" transform="translate(1401.099 -873.291)" fill="#fbfbfb"/>
      <path id="Path_285" data-name="Path 285" d="M51.672,84.9c-.2,1.605-.929,2.761-2.647,2.872a2.589,2.589,0,0,1-2.878-2.262,2.9,2.9,0,0,1,2.319-3.175c.085-.009.169-.013.255-.013,1.651-.112,2.575,1.008,2.952,2.579" transform="translate(1409.718 -873.318)" fill="#fff"/>
    </g>
    <text id="AM" transform="translate(40 787)" fill="#00904a" font-size="11" font-family="Raleway-Bold, Raleway" font-weight="700"><tspan x="0" y="0">AM</tspan></text>
  </g>
</svg>
