<svg xmlns="http://www.w3.org/2000/svg" width="70" height="30" viewBox="0 0 70 30">
  <g id="Group_50" data-name="Group 50" transform="translate(-113 -812)">
    <g id="Rectangle_267" data-name="Rectangle 267" transform="translate(113 812)" fill="none" stroke="#00904a" stroke-width="2">
      <rect width="70" height="30" rx="5" stroke="none"/>
      <rect x="1" y="1" width="68" height="28" rx="4" fill="none"/>
    </g>
    <path id="Path_191" data-name="Path 191" d="M63.266,290.221c.024-2.625.084-5.251.055-7.875-.013-1.145.131-1.789,1.572-1.779q13.544.1,27.089,0c1.411-.009,1.61.585,1.594,1.759-.035,2.624.036,5.249.063,7.874-.676.956-1.71.847-2.676.854-8.337.057-16.675.016-25.012,0-.963,0-2,.114-2.685-.834" transform="translate(80.577 538.521)" fill="#00904a"/>
    <path id="Path_192" data-name="Path 192" d="M63.666,296.161c-1.372,1.052-2.948.38-4.422.472-2.018.127-4.061-.092-6.074.07-1.71.138-2.947-.187-3.451-1.979-2.625-1.458-4.351-.127-5.855,1.889-1.965-1.7-.739-3.807-.683-5.738a12.981,12.981,0,0,1,.774-2.3c.424-1.794,1.471-2.393,3.325-2.423,4.352-.07,4.338-.172,4.358,4.122,0,1.139.094,2.279.144,3.418,3.613.029,7.225-.03,10.837.012.7.008,1.6-.184,1.933.624s-.381,1.317-.887,1.833" transform="translate(90.977 535.699)" fill="#00904a"/>
    <path id="Path_193" data-name="Path 193" d="M72.952,303.248c.162-.6.323-1.194.536-1.982-3.464,0-6.853.033-10.242-.027-.722-.012-1.627.476-2.178-.46a1.156,1.156,0,0,0,1.085-.648c3.238.733,6.52.267,9.779.314,5.984.085,11.971.03,17.957.018a4.51,4.51,0,0,0,2.637-.352q-.006.662-.011,1.323c-1.479.876-3.178.243-4.721.68a.3.3,0,0,1-.291.246,7.333,7.333,0,0,0-4.761.386l-.211.013h-.211c-2.126-1.441-2.474-1.331-2.972.958l-.92,1.019a.986.986,0,0,1-.489-.519c-1.194-2.7-1.349-2.751-3.845-1.222a1.666,1.666,0,0,1-.685.246c-.151.01-.3.013-.456.01" transform="translate(81.692 528.612)" fill="#fff"/>
    <path id="Path_195" data-name="Path 195" d="M105.028,303.923c1.451-1.807,3.033-2,4.761-.386.564,1.9.246,3.426-1.947,3.851-1.765.345-2.776-.982-2.814-3.466" transform="translate(59.403 527.432)" fill="#00904a"/>
    <path id="Path_196" data-name="Path 196" d="M86.1,304.4c.729-1.282,1.616-2.366,3.3-1.87s1.86,1.877,1.717,3.365a2.588,2.588,0,0,1-3.017,1.45,2.743,2.743,0,0,1-2-2.945" transform="translate(69 527.448)" fill="#00904a"/>
    <path id="Path_197" data-name="Path 197" d="M51.211,303.055c.887,1.676.592,3.152-1.167,3.858-1.61.646-2.859-.088-3.381-1.821a2.053,2.053,0,0,1,1.2-2.967,2.342,2.342,0,0,1,3.347.93" transform="translate(89.122 527.767)" fill="#00904a"/>
    <path id="Path_198" data-name="Path 198" d="M115.223,303.259c-.28-1.176.621-.847,1.151-.843,1.19.009,2.38.1,3.57.163.18,1.4-.6,1.938-1.831,2.272-1.556.422-2.353-.29-2.89-1.592" transform="translate(54.261 527.466)" fill="#00904a"/>
    <path id="Path_199" data-name="Path 199" d="M97.246,304.847l-.873-2.451a24.916,24.916,0,0,0,3.022-.022c1.718-.213.986.777.823,1.515-.545,1.7-1.934.786-2.972.958" transform="translate(63.792 527.479)" fill="#00904a"/>
    <path id="Path_200" data-name="Path 200" d="M50.5,302.546c-2.729-1.62-4.037-1.035-4.549,2.037l-.943-.547c1.4-3.593,3.321-4.213,5.855-1.889l-.363.4" transform="translate(89.835 528.276)" fill="#fff"/>
    <path id="Path_296" data-name="Path 296" d="M45.308,292.246c1.112-3.786,1.594-4.19,4.166-3.855,1.722.226.838,1.523.864,2.268.049,1.417-.76,1.641-5.028,1.586" transform="translate(89.682 534.602)" fill="#fff"/>
    <text id="C" transform="translate(118 832)" fill="#00904a" font-size="11" font-family="Raleway-Bold, Raleway" font-weight="700"><tspan x="0" y="0">C</tspan></text>
  </g>
</svg>
