<svg xmlns="http://www.w3.org/2000/svg" width="70" height="30" viewBox="0 0 70 30">
  <g id="Group_48" data-name="Group 48" transform="translate(-193 -768)">
    <g id="Rectangle_265" data-name="Rectangle 265" transform="translate(193 768)" fill="none" stroke="#00904a" stroke-width="2">
      <rect width="70" height="30" rx="5" stroke="none"/>
      <rect x="1" y="1" width="68" height="28" rx="4" fill="none"/>
    </g>
    <g id="Rectangle_266" data-name="Rectangle 266" transform="translate(193 768)" fill="none" stroke="#00904a" stroke-width="2">
      <rect width="70" height="30" rx="5" stroke="none"/>
      <rect x="1" y="1" width="68" height="28" rx="4" fill="none"/>
    </g>
    <g id="Group_43" data-name="Group 43" transform="translate(-1231.758 1531.403)">
      <path id="Path_169" data-name="Path 169" d="M63.255,171.324c.026-2.543.152-5.091.04-7.628-.073-1.663.509-2.047,2.1-2.021,5.663.1,11.33.085,16.994,0,1.464-.021,2.044.3,1.966,1.885-.13,2.62-.021,5.252-.013,7.879-.583,1.165-1.673,1.188-2.75,1.193-5.244.026-10.488.039-15.731-.009-1.048-.01-2.205.058-2.608-1.305" transform="translate(1400.606 -917.278)" fill="#00904a"/>
      <path id="Path_170" data-name="Path 170" d="M43.921,177.293c-1.979-1.567-.613-3.648-.821-5.486-.032-.287.219-.6.324-.909,1.251-3.655,3.648-5.017,7.452-4.346,1.038.183.759.887.781,1.463.079,2.113.111,4.227.161,6.341,3.813.548,7.648.107,11.47.256.465.018,1.1-.176,1.3.362.249.654-.366,1-.8,1.367-.148.76-.592,1.023-1.371,1.016q-5.377-.049-10.755,0c-.761,0-1.254-.221-1.38-1.014-3.345-2.317-3.345-2.317-6.368.95" transform="translate(1410.96 -919.668)" fill="#00904a"/>
      <path id="Path_172" data-name="Path 172" d="M51.619,184.654c.2,1.592-.155,2.972-1.885,3.4a2.388,2.388,0,0,1-3.083-1.913,2.108,2.108,0,0,1,1.32-3.094c1.548-.542,3.025-.264,3.648,1.611" transform="translate(1409.154 -927.988)" fill="#00904a"/>
      <path id="Path_173" data-name="Path 173" d="M91.18,186.672c-.766,1.188-1.8,1.911-3.231,1.385-1.512-.558-1.908-1.817-1.672-3.325.742-1.972,2.3-2.1,3.929-1.513,1.754.633,1.326,2.106.973,3.451" transform="translate(1388.965 -928.045)" fill="#00904a"/>
      <path id="Path_174" data-name="Path 174" d="M78.423,185.833c.129-1.347.065-2.653-1.4-3.27-1.538-.646-2.6.18-3.5,1.331l-.246.03-.242-.042c.179-.718,1.052-1.617-.761-1.534-3.007.138-6.027.074-9.04.01-.722-.015-1.627.48-2.178-.461a1.152,1.152,0,0,0,1.085-.641,3.653,3.653,0,0,0,1.112.388q9.528.03,19.054-.006a3.563,3.563,0,0,0,.924-.261q-.015.549-.03,1.1c-1.311.9-2.782.444-4.175.523.394.542.836,1.109.3,1.843l-.9,1" transform="translate(1401.722 -927.206)" fill="#fff"/>
      <path id="Path_176" data-name="Path 176" d="M97.027,186.087a4.811,4.811,0,0,0-1.06-2.366H100.9c.129,3.113-2.218,2.176-3.873,2.366" transform="translate(1384.02 -928.456)" fill="#00904a"/>
      <path id="Path_177" data-name="Path 177" d="M50.933,184.282c-.875-.98-1.824-1.848-3.278-1.374-1.367.444-1.647,1.6-1.69,2.859l-.924-.524c.42-1.676,1.226-3.043,3.135-3.168a2.818,2.818,0,0,1,3.233,2.218l-.239.012Z" transform="translate(1409.84 -927.616)" fill="#fff"/>
      <path id="Path_286" data-name="Path 286" d="M45.071,173.625c1.232-4.205,1.73-4.624,4.278-4.24,1.7.258,1.044,1.676.863,2.282-.794,2.648-3.217,1-5.14,1.955" transform="translate(1409.825 -921.131)" fill="#fff"/>
    </g>
    <text id="C1" transform="translate(200 788)" fill="#00904a" font-size="12" font-family="Raleway-Bold, Raleway" font-weight="700"><tspan x="0" y="0">C1</tspan></text>
    <text id="C1-2" data-name="C1" transform="translate(200 788)" fill="#00904a" font-size="11" font-family="Raleway-Bold, Raleway" font-weight="700"><tspan x="0" y="0">C1</tspan></text>
  </g>
</svg>
