<svg xmlns="http://www.w3.org/2000/svg" width="70" height="30" viewBox="0 0 70 30">
  <g id="Group_49" data-name="Group 49" transform="translate(-273 -768)">
    <g id="Rectangle_269" data-name="Rectangle 269" transform="translate(273 768)" fill="none" stroke="#00904a" stroke-width="2">
      <rect width="70" height="30" rx="5" stroke="none"/>
      <rect x="1" y="1" width="68" height="28" rx="4" fill="none"/>
    </g>
    <g id="Group_45" data-name="Group 45" transform="translate(-1157.183 1504.409)">
      <path id="Path_242" data-name="Path 242" d="M112.8,228.83c-.176-.053-.494-.084-.507-.163a42.475,42.475,0,0,1-.125-6.948c0-.566.654-.423,1.055-.423q7.289-.013,14.579,0c.536,0,1.205-.122,1.158.75-.121,2.247.308,4.513-.231,6.745a2.677,2.677,0,0,1-2.08.5q-5.964.019-11.93,0a2.812,2.812,0,0,1-1.92-.456" transform="translate(1367.443 -947.502)" fill="#00904a"/>
      <path id="Path_243" data-name="Path 243" d="M72.516,228.816c-2.4-.015-4.8-.086-7.2-.019-1.074.03-1.356-.325-1.306-1.348.08-1.658.084-3.327,0-4.985-.05-1.013.333-1.217,1.263-1.208q6.65.064,13.3,0c.878-.008,1.182.244,1.148,1.138a49.411,49.411,0,0,0,.009,4.985c.074,1.158-.3,1.537-1.433,1.411a18.549,18.549,0,0,0-2.4.027,3.182,3.182,0,0,1-3.384,0" transform="translate(1397.726 -947.487)" fill="#00904a"/>
      <path id="Path_244" data-name="Path 244" d="M44.582,233.957c-.414.684-.787.548-.873-.145a11.273,11.273,0,0,1,1.2-6.6c.239-.473.678-.484,1.1-.5,1.351-.062,2.7-.106,4.053-.156.538,1.96-.091,3.988.353,5.953h0c2.636.333,5.284.033,7.924.161.513.025,1.4-.4,1.4.627a1.186,1.186,0,0,1-1.374,1.182,89.222,89.222,0,0,1-9.023-.156l.006-.01c-.178-.171.034.056-.141-.117-2.182-2.161-2.182-2.161-4.629-.236" transform="translate(1410.558 -950.822)" fill="#00904a"/>
      <path id="Path_245" data-name="Path 245" d="M114.011,241.6l15.93-.043.288.843c-.674.481-1.577.153-2.25.638l-.425.013a2.558,2.558,0,0,0-3.6,1.462c-.45-.318-.333-.793-.343-1.233-.4-.081.4-.64-.212-.585a28.97,28.97,0,0,1-3.666.04c1.142.462,2.526-.29,3.555.7-.891.652-1.905.248-2.859.3-.754.044-1.476.008-1.917.768-.283-.16-.362-.463-.524-.712-.881-1.357-1.861-1.358-2.74,0-.162.25-.241.555-.521.716-.448-.3-.337-.767-.349-1.2-.338-.4-.254-.908-.34-1.37a.979.979,0,0,1-.023-.341" transform="translate(1366.237 -960.269)" fill="#fff"/>
      <path id="Path_248" data-name="Path 248" d="M59.073,243.844c2.88.032,5.762.019,8.64.119,1.164.04,1.207-.785,1.533-1.6-3.05-.415-6.1.212-9.1-.333,2.426-.321,4.865-.053,7.295-.152a3.783,3.783,0,0,0,1.965-.2h3.384c.936.426,1.924.131,2.885.2,1.173.085,1.587.528.856,1.606a2.772,2.772,0,0,0-3.125-.365l-.277.354c-2.379-.815-2.379-.815-3.78,1.122-2.74-.73-5.532-.1-8.29-.333-.671-.056-1.466.364-1.992-.417" transform="translate(1400.831 -960.347)" fill="#fff"/>
      <path id="Path_249" data-name="Path 249" d="M50.979,245.109a1.817,1.817,0,0,1-2.288,1.234,1.943,1.943,0,0,1-1.444-2.362c.285-1.488,1.384-1.682,2.529-1.356a1.763,1.763,0,0,1,1.2,2.484" transform="translate(1408.291 -960.859)" fill="#00904a"/>
      <path id="Path_250" data-name="Path 250" d="M140.851,245.486c-.048-.977.116-1.87,1.168-2.246a2.079,2.079,0,0,1,2.434.784,1.888,1.888,0,0,1-.948,2.586c-1.226.557-2.074-.029-2.654-1.123" transform="translate(1349.338 -961.246)" fill="#00904a"/>
      <path id="Path_251" data-name="Path 251" d="M115.936,245.536c-.03-1.317.375-2.338,1.895-2.345,1.54-.007,1.895,1.052,1.893,2.346-1.444,1.8-2.376,1.8-3.787,0" transform="translate(1365.023 -961.3)" fill="#00904a"/>
      <path id="Path_252" data-name="Path 252" d="M86.841,245.524c.064-.919.069-1.878,1.171-2.245A2.132,2.132,0,0,1,90.62,244.4a1.976,1.976,0,0,1-3.779,1.122" transform="translate(1383.344 -961.276)" fill="#00904a"/>
      <path id="Path_254" data-name="Path 254" d="M131.035,244.4c-1.1-.015-2.2-.068-3.3-.031-.792.027-1.259-.255-1.419-1.265,1.534,0,3.039.048,4.54-.015,1.311-.056.392.749.5,1.152a1.2,1.2,0,0,0-.324.159" transform="translate(1358.487 -961.234)" fill="#00904a"/>
      <path id="Path_255" data-name="Path 255" d="M97.461,243.9c-.068-.165-.243-.415-.19-.481.719-.882,1.7-.311,2.561-.4.963-.1.733.686.754,1.246-1.082.222-2.292,1.539-3.125-.365" transform="translate(1376.783 -961.129)" fill="#00904a"/>
      <path id="Path_256" data-name="Path 256" d="M50.338,244.47c.009-.945-.068-1.876-1.148-2.225a2.092,2.092,0,0,0-2.586,1.1l-.4.011a2.133,2.133,0,0,1,2.309-1.878,2.4,2.4,0,0,1,2.46,2.231l-.64.764" transform="translate(1408.931 -960.219)" fill="#fff"/>
      <path id="Path_257" data-name="Path 257" d="M111,242.589c1.178.193.346.885.34,1.37a.522.522,0,0,1-.171.051c-.688-.046-1.757.646-1.947-.434-.259-1.479,1.166-.657,1.777-.988" transform="translate(1369.269 -960.92)" fill="#00904a"/>
      <path id="Path_258" data-name="Path 258" d="M151.4,244c0-.324-.6-.861.28-.881a3.35,3.35,0,0,1,1.971.243c-.284,1.859-1.344.976-2.25.638" transform="translate(1342.816 -961.234)" fill="#00904a"/>
      <path id="Path_259" data-name="Path 259" d="M61.318,232.5c-.744-1.947-.14-3.975-.353-5.953.782,1.945.193,3.971.353,5.953" transform="translate(1399.658 -950.821)" fill="#fff"/>
      <path id="Path_319" data-name="Path 319" d="M47.541,231.928c-.389-.25-1.452.661-1.3-.453.148-1.088.326-2.572,2.162-2.325.659.089,1.478-.386,1.481.926,0,1.674.061,1.7-2.341,1.851" transform="translate(1408.921 -952.441)" fill="#f7f7f7"/>
    </g>
    <text id="C1E" transform="translate(276 788)" fill="#00904a" font-size="11" font-family="Raleway-Bold, Raleway" font-weight="700"><tspan x="0" y="0">C1E</tspan></text>
  </g>
</svg>
