<svg xmlns="http://www.w3.org/2000/svg" width="70" height="30" viewBox="0 0 70 30">
  <g id="Group_51" data-name="Group 51" transform="translate(-193 -812)">
    <g id="Rectangle_268" data-name="Rectangle 268" transform="translate(193 812)" fill="none" stroke="#00904a" stroke-width="2">
      <rect width="70" height="30" rx="5" stroke="none"/>
      <rect x="1" y="1" width="68" height="28" rx="4" fill="none"/>
    </g>
    <g id="Group_44" data-name="Group 44" transform="translate(-1239.24 1490.367)">
      <path id="Path_260" data-name="Path 260" d="M74.462,346.5c-3.049,0-6.1-.046-9.146.025-1.054.024-1.381-.282-1.319-1.325a34.956,34.956,0,0,0,0-4.4c-.074-1.1.354-1.291,1.352-1.285q9.063.068,18.124,0c1.053-.009,1.377.272,1.315,1.317a35.481,35.481,0,0,0,0,4.4c.071,1.091-.342,1.316-1.35,1.3-2.991-.063-5.985-.022-8.977-.022" transform="translate(1397.115 -1007.449)" fill="#00904a"/>
      <path id="Path_261" data-name="Path 261" d="M140.694,339.517c2.87,0,5.746.076,8.609-.029,1.609-.059,1.98.36,1.9,1.433a34.495,34.495,0,0,0-.007,4.408c.044.865-.307,1.182-1.565,1.173q-8.959-.063-17.92,0c-1.376.012-1.711-.345-1.655-1.275a38.946,38.946,0,0,0,0-4.578c-.047-.88.317-1.183,1.563-1.158,3.023.061,6.05.02,9.076.02" transform="translate(1347.764 -1007.429)" fill="#00904a"/>
      <path id="Path_262" data-name="Path 262" d="M44.553,351.795c-.111.234-.052.612-.415.641s-.421-.291-.45-.571a10.659,10.659,0,0,1,1.092-6.03c.413-.821,1.187-.488,1.8-.519,3-.155,3-.133,3,2.833q0,1.265,0,2.53c1.458.547,2.972.115,4.454.25,1.382.126,2.789-.238,4.156.208-.384,1.195-1.194,1.47-2.413,1.4-2.287-.134-4.588-.073-6.881-.094-.153-.167.018.068-.132-.1-1.812-2.071-1.812-2.071-4.214-.544" transform="translate(1410.56 -1011.246)" fill="#00904a"/>
      <path id="Path_265" data-name="Path 265" d="M160.638,361.438a1.57,1.57,0,0,1,1.425,1.71,1.748,1.748,0,0,1-3.494-.1c.034-.952.674-1.659,2.069-1.616" transform="translate(1334.678 -1021.921)" fill="#00904a"/>
      <path id="Path_266" data-name="Path 266" d="M89.739,361.586c.136.3.29.593.41.9a1.593,1.593,0,0,1-.685,2.032,1.636,1.636,0,0,1-2.02-.046,1.663,1.663,0,0,1-.533-2.1,1.542,1.542,0,0,1,1.745-1c.37.047.734.141,1.1.213Z" transform="translate(1382.088 -1021.863)" fill="#00904a"/>
      <path id="Path_267" data-name="Path 267" d="M133.886,362.123a3.223,3.223,0,0,1,2.95-.469v-.014c-.082.442.328.7.4,1.074a1.63,1.63,0,0,1-1.346,2.145,1.591,1.591,0,0,1-2.055-1.459,5.672,5.672,0,0,1,.1-1.33Z" transform="translate(1351.006 -1021.967)" fill="#00904a"/>
      <path id="Path_268" data-name="Path 268" d="M109.025,363.109c-.134,1-.6,1.692-1.691,1.746a1.567,1.567,0,0,1-1.809-1.576,1.585,1.585,0,0,1,1.711-1.838c1.107-.014,1.586.673,1.791,1.668" transform="translate(1369.697 -1021.925)" fill="#00904a"/>
      <path id="Path_269" data-name="Path 269" d="M50.651,363.348a1.694,1.694,0,0,1-2.222.954A1.733,1.733,0,0,1,47.344,362a1.694,1.694,0,0,1,2.389-1.117c1.163.412,1.3,1.388.918,2.469" transform="translate(1408.164 -1021.455)" fill="#00904a"/>
      <path id="Path_270" data-name="Path 270" d="M142.668,361.536c1.767-.408,3.554-.068,5.407-.209-.088.944-.446,1.4-1.417,1.347-1.427-.082-2.989.384-3.99-1.15v.012" transform="translate(1345.174 -1021.849)" fill="#00904a"/>
      <path id="Path_271" data-name="Path 271" d="M115.461,361.412c.92,0,1.7-.009,2.472,0,.361.006.829-.124.812.51-.011.392-.029.694-.489.928-1.325.673-2.005.383-2.794-1.442" transform="translate(1363.134 -1021.904)" fill="#00904a"/>
      <path id="Path_272" data-name="Path 272" d="M95.568,361.6a10.894,10.894,0,0,1,3.461-.207c-.417.663-.241,1.525-1.2,1.749-1.087.255-1.411-.462-1.745-1.247-.063-.147-.349-.2-.534-.3l.017,0" transform="translate(1376.278 -1021.869)" fill="#00904a"/>
      <path id="Path_273" data-name="Path 273" d="M69.775,361.648c-2.362-.014-4.724-.016-7.084-.051-.528-.007-1.151.222-1.526-.408q4.3.054,8.6.113c.046,0,.133.075.127.1a1.39,1.39,0,0,1-.115.249" transform="translate(1398.978 -1021.759)" fill="#00904a"/>
      <path id="Path_274" data-name="Path 274" d="M50.065,362.887c.14-.962,0-1.839-1.007-2.243a1.866,1.866,0,0,0-2.3.89l-.395.008a1.974,1.974,0,0,1,2.315-1.493,2.219,2.219,0,0,1,2.032,2.139l-.646.7" transform="translate(1408.749 -1020.995)" fill="#fff"/>
      <path id="Path_275" data-name="Path 275" d="M131.85,361.782c-.271.077-.337.589-.563.7a7.048,7.048,0,0,1-3.813.323c-.251-.046.344-.169-.147-.323-.475-.15-.65-1.175.147-1.184,1.433-.017,3.474-.754,4.28.544l.1-.055" transform="translate(1353.091 -1021.68)" fill="#00904a"/>
      <path id="Path_276" data-name="Path 276" d="M168.682,361.167c.808.344,1.744-.463,2.253.573a.541.541,0,0,1-.374.788c-.884.133-1.688.058-1.879-1.362" transform="translate(1328 -1021.744)" fill="#00904a"/>
      <path id="Path_320" data-name="Path 320" d="M47.209,350.165c-.35-.247-1.288.438-1.058-.5.238-.969.254-2.382,1.955-2.192.68.076,1.359-.256,1.429.983.115,2.013-1.35,1.427-2.327,1.712" transform="translate(1408.914 -1012.691)" fill="#f4f4f4"/>
    </g>
    <text id="CE" transform="translate(198 832)" fill="#00904a" font-size="11" font-family="Raleway-Bold, Raleway" font-weight="700"><tspan x="0" y="0">CE</tspan></text>
  </g>
</svg>
