<svg xmlns="http://www.w3.org/2000/svg" width="127.539" height="87.153" viewBox="0 0 127.539 87.153"><g transform="translate(0.108 0.111)"><path d="M.75,98.464c-.061-8.339,10.437-13.77,24.171-13.77s28.756,4.86,28.756,23.9v16.646c0,3.471,1.571,5.743,4.6,5.743s4.581-2.272,4.581-5.743V84.7H65.7v40.533c0,3.5,1.62,5.743,4.609,5.743s4.694-2.272,4.666-5.743c-.089-9.8-.089,2.361-.089-16.65s15.018-23.9,28.695-23.9,24.232,5.569,24.232,13.77c-.028,3.094-1.778,7.408-8.311,8.1-15.309,1.62-15.309-15.224-6.124-16.565A22.889,22.889,0,0,0,96.608,91.28c-6.97,3.354-6.707,13.24-6.707,17.322v16.634c0,14.491-21.287,14.491-25.633,7.784-4.346,6.707-25.572,6.707-25.572-7.784v-16.65c0-4.082.292-13.94-6.735-17.322a22.392,22.392,0,0,0-16.719-1.284c9.129,1.341,9.129,18.169-6.152,16.565C2.556,105.876.75,101.559.75,98.464Z" transform="translate(-0.489 -50.434)" fill="#005140" stroke="#485156" stroke-width="0.22"/><path d="M189.162,57.363c3.443-3.617,6.152-9.943,14.175-8.048-2.191-6.618-17.326-10.368-24.556-5.395s-6.6,10.089-4,13.851S183.115,63.694,189.162,57.363Z" transform="translate(-102.966 -24.816)" fill="#00904a" stroke="#60a172" stroke-width="0.22"/><path d="M82.515,52.914c-1.312-6.213-4.492-10-13-8.692,7-8.262,20.935-7.962,26.212-1.256s2.948,12.337-.551,15.079S83.855,59.123,82.515,52.914Z" transform="translate(-41.401 -22.639)" fill="#00904a" stroke="#60a172" stroke-width="0.22"/><path d="M141.3,13.179c1.49-4.99,6.33-8.137,3.414-13.066,8.866-.235,13.122,8.505,11.9,15.39s-6.415,8.4-9.959,7.764S139.9,17.93,141.3,13.179Z" transform="translate(-83.914 -0.109)" fill="#00904a" stroke="#60a172" stroke-width="0.22"/><path d="M153.062,63.26A3.106,3.106,0,1,1,150,66.354,3.106,3.106,0,0,1,153.062,63.26Z" transform="translate(-89.291 -37.683)" fill="#dc2f34" stroke="#e30613" stroke-width="0.22"/><path d="M33.549,130.58c.235,1.256.466,2.977.583,3.734-12.8,4.313-19.3,9.943-19.3,15.747,0,7.408,6.909,12.073,18.72,5.338a9.259,9.259,0,0,1,.207,2.361c-5.1,6.355-32.34,11.956-33.6-5.921C-1.237,131.864,24.744,137.931,33.549,130.58Z" transform="translate(-0.106 -77.738)" fill="#dc2f34" stroke="#e30613" stroke-width="0.22"/><path d="M230.981,130.58c-.113,1.138-.466,2.977-.551,3.734,12.786,4.313,19.266,9.943,19.266,15.747,0,7.408-6.885,12.073-18.724,5.338a4.608,4.608,0,0,0-.2,2.3c5.075,6.359,32.34,12.017,33.592-5.86C265.771,131.864,239.818,137.931,230.981,130.58Z" transform="translate(-137.146 -77.738)" fill="#dc2f34" stroke="#e30613" stroke-width="0.22"/></g></svg>