<svg xmlns="http://www.w3.org/2000/svg" width="25.423" height="20.095" viewBox="0 0 25.423 20.095"><path d="M.794,13.606a.794.794,0,0,1,.794.794v5.561a1.589,1.589,0,0,0,1.589,1.589H22.245a1.589,1.589,0,0,0,1.589-1.589V14.4a.794.794,0,0,1,1.589,0v5.561a3.178,3.178,0,0,1-3.178,3.178H3.178A3.178,3.178,0,0,1,0,19.962V14.4a.794.794,0,0,1,.794-.794Zm7.15-5a.794.794,0,0,0,1.124,0l3.643-3.645,3.643,3.643a.794.794,0,1,0,1.124-1.123l-4.2-4.2a.794.794,0,0,0-1.125,0l-4.2,4.2a.794.794,0,0,0,0,1.125Z" transform="translate(0 -3.044)" fill="#fff" fill-rule="evenodd"/><path d="M17.669,4.5a.794.794,0,0,1,.794.794V18.006a.794.794,0,1,1-1.589,0V5.294A.794.794,0,0,1,17.669,4.5Z" transform="translate(-4.958 -3.472)" fill="#fff" fill-rule="evenodd"/></svg>