<svg xmlns="http://www.w3.org/2000/svg" width="70" height="30" viewBox="0 0 70 30">
  <g id="Group_47" data-name="Group 47" transform="translate(-113 -768)">
    <g id="Rectangle_264" data-name="Rectangle 264" transform="translate(113 768)" fill="none" stroke="#00904a" stroke-width="2">
      <rect width="70" height="30" rx="5" stroke="none"/>
      <rect x="1" y="1" width="68" height="28" rx="4" fill="none"/>
    </g>
    <g id="Group_42" data-name="Group 42" transform="translate(-1312.743 1554.926)">
      <path id="Path_185" data-name="Path 185" d="M49.352,126.853c-.878.422-1.855,1.01-2.284-.452-.548-1.875.014-3.234,1.324-3.488a20.363,20.363,0,0,1,2.715-.43c3.543-.2,6.652-1.231,8.779-4.3a2.571,2.571,0,0,1,2.421-.969c3.152.045,6.308.094,9.457-.018a4.631,4.631,0,0,1,3.541,1.283,10.507,10.507,0,0,0,2.161,1.7c2.338,1.212,2.769,3.153,2.573,5.56-.137,1.687-.743,1.9-2.052,1.105a10.4,10.4,0,0,1-.952-1.21,2.682,2.682,0,0,0-4.217-.093,4.938,4.938,0,0,1-.972.927c-.073.858-.7.763-1.289.763q-6.888-.008-13.776,0c-.6,0-1.21.071-1.3-.769a4.078,4.078,0,0,1-.85-.771c-1.565-1.6-2.9-1.553-4.391.155a9.241,9.241,0,0,1-.891,1.009" transform="translate(1408.919 -894.72)" fill="#00904a"/>
      <path id="Path_187" data-name="Path 187" d="M59.312,139.479C57.5,141.451,56,141.331,54.5,139.1a2.5,2.5,0,0,1,1.114-3.17,2.532,2.532,0,0,1,2.923.074c1.35.875,1.051,2.2.778,3.479" transform="translate(1404.407 -905.807)" fill="#00904a"/>
      <path id="Path_188" data-name="Path 188" d="M116.341,139.114c-1.426,2.25-2.94,2.372-4.807.385-.268-1.284-.572-2.612.789-3.485a2.623,2.623,0,0,1,2.936-.069,2.427,2.427,0,0,1,1.082,3.169" transform="translate(1369.908 -905.827)" fill="#00904a"/>
      <path id="Path_189" data-name="Path 189" d="M115.656,138.56c-.057-2.213-.818-3.213-2.447-3.219-1.75-.005-2.429,1.033-2.359,3.6-.745-.459-.15-1.391-.678-1.926a2.886,2.886,0,0,1,3.131-2.4,2.949,2.949,0,0,1,3.009,2.775c-.364.307-.141.943-.656,1.165" transform="translate(1370.593 -905.273)" fill="#fff"/>
      <path id="Path_190" data-name="Path 190" d="M58.624,138.947c.129-1.464.214-2.929-1.584-3.5-1.88-.592-3.1.6-3.23,3.113l-.635-1.156a2.953,2.953,0,0,1,2.993-2.784,2.908,2.908,0,0,1,3.139,2.392c-.5.548.051,1.467-.682,1.934" transform="translate(1405.095 -905.275)" fill="#fff"/>
      <path id="Path_292" data-name="Path 292" d="M74.409,123.989c1.842-3.676,4.821-4.01,8.073-3.649,1.6.177.636,1.421.775,2.152.106.559.461,1.526-.831,1.508-2.6-.036-5.21-.011-8.017-.011" transform="translate(1392.242 -896.564)" fill="#fff"/>
      <path id="Path_293" data-name="Path 293" d="M103.042,124a11.641,11.641,0,0,0-1.756.015c-1.648.256-2.072-.409-2.029-2.025.039-1.409.5-1.593,1.783-1.715a5.451,5.451,0,0,1,5.356,2.344c.227.311.587.566.4,1.006-.194.457-.644.363-1.018.369-.912.015-1.823.005-2.735.006" transform="translate(1377.202 -896.569)" fill="#fff"/>
    </g>
    <text id="B" transform="translate(121 788)" fill="#00904a" font-size="12" font-family="Raleway-Bold, Raleway" font-weight="700"><tspan x="0" y="0">B</tspan></text>
    <text id="B-2" data-name="B" transform="translate(121 788)" fill="#00904a" font-size="11" font-family="Raleway-Bold, Raleway" font-weight="700"><tspan x="0" y="0">B</tspan></text>
  </g>
</svg>
